<!DOCTYPE svg PUBLIC "-//W3C//DTD SVG 1.1//EN" "http://www.w3.org/Graphics/SVG/1.1/DTD/svg11.dtd">

<!-- Uploaded to: SVG Repo, www.svgrepo.com, Transformed by: SVG Repo Mixer Tools -->
<svg version="1.1" id="_x32_" xmlns="http://www.w3.org/2000/svg" xmlns:xlink="http://www.w3.org/1999/xlink" width="800px" height="800px" viewBox="-51.2 -51.2 614.40 614.40" xml:space="preserve" fill="#000000" stroke="#000000" stroke-width="10.24">

<g id="SVGRepo_bgCarrier" stroke-width="0"/>

<g id="SVGRepo_tracerCarrier" stroke-linecap="round" stroke-linejoin="round" stroke="#CCCCCC" stroke-width="5.12"/>

<g id="SVGRepo_iconCarrier"> <style type="text/css">  .st0{fill:#23806f;}  </style> <g> <path class="st0" d="M0,16v480h512V16H0z M420,56h56v32h-56V56z M324,56h56v32h-56V56z M228,56h56v32h-56V56z M132,56h56v32h-56V56 z M36,56h56v32H36V56z M92,456H36v-32h56V456z M188,456h-56v-32h56V456z M284,456h-56v-32h56V456z M380,456h-56v-32h56V456z M476,456h-56v-32h56V456z M476.688,392h-440V120h440V392z"/> </g> </g>

</svg>